<?xml version="1.0" encoding="UTF-8" standalone="no"?>
<!-- Created with Inkscape (http://www.inkscape.org/) -->

<svg
   xmlns:dc="http://purl.org/dc/elements/1.1/"
   xmlns:cc="http://creativecommons.org/ns#"
   xmlns:rdf="http://www.w3.org/1999/02/22-rdf-syntax-ns#"
   xmlns:svg="http://www.w3.org/2000/svg"
   xmlns="http://www.w3.org/2000/svg"
   xmlns:sodipodi="http://sodipodi.sourceforge.net/DTD/sodipodi-0.dtd"
   xmlns:inkscape="http://www.inkscape.org/namespaces/inkscape"
   width="299.01239mm"
   height="107.21769mm"
   viewBox="0 0 1059.4927 379.9052"
   id="svg4209"
   version="1.1"
   inkscape:version="0.91 r13725"
   sodipodi:docname="jcoin.svg">
  <defs
     id="defs4211" />
  <sodipodi:namedview
     id="base"
     pagecolor="#ffffff"
     bordercolor="#666666"
     borderopacity="1.0"
     inkscape:pageopacity="0.0"
     inkscape:pageshadow="2"
     inkscape:zoom="0.35"
     inkscape:cx="434.74637"
     inkscape:cy="143.72418"
     inkscape:document-units="px"
     inkscape:current-layer="layer1"
     showgrid="false"
     inkscape:window-width="1680"
     inkscape:window-height="997"
     inkscape:window-x="-8"
     inkscape:window-y="-8"
     inkscape:window-maximized="1"
     fit-margin-top="1"
     fit-margin-left="1"
     fit-margin-bottom="1"
     fit-margin-right="1" />
  <metadata
     id="metadata4214">
    <rdf:RDF>
      <cc:Work
         rdf:about="">
        <dc:format>image/svg+xml</dc:format>
        <dc:type
           rdf:resource="http://purl.org/dc/dcmitype/StillImage" />
        <dc:title></dc:title>
      </cc:Work>
    </rdf:RDF>
  </metadata>
  <g
     inkscape:label="Layer 1"
     inkscape:groupmode="layer"
     id="layer1"
     transform="translate(486.88923,-296.18118)">
    <g
       id="g4797"
       transform="matrix(0.67916932,0,0,0.67916932,-155.0722,215.77245)">
      <g
         id="g4290"
         transform="translate(-741.27452,-210.53804)">
        <path
           style="fill:#ff7f2a"
           d="m 1545.379,637.97831 -83.6401,-42.31247 0.2324,-86.10958 0.2324,-86.10958 2.2941,-3.25685 c 1.9261,-2.73422 15.3007,-9.84191 83.3443,-44.292 69.4348,-35.15448 81.6442,-41.02838 85.1966,-40.98795 3.4677,0.0395 17.425,6.80571 85.2399,41.3227 61.1038,31.10105 81.586,41.96426 83.0919,44.06961 1.9716,2.75644 2.0022,3.95309 2.2588,88.81201 l 0.2603,86.01792 -84.0741,42.57933 c -61.9044,31.35147 -84.9604,42.57932 -87.4352,42.57932 -2.4729,0 -25.4607,-11.17987 -87.0013,-42.31246 z"
           id="path4183"
           inkscape:connector-curvature="0" />
        <path
           inkscape:connector-curvature="0"
           id="path4185"
           d="m 1477.1429,436.64792 150,74.28571 1.4285,152.85715 L 1470,586.64792 Z"
           style="fill:#ff6600;fill-opacity:1;fill-rule:evenodd;stroke:#000000;stroke-width:1px;stroke-linecap:butt;stroke-linejoin:miter;stroke-opacity:1" />
        <path
           style="fill:#3d3d3a"
           d="m 1543.4286,640.33098 -85.5,-42.68306 0.2188,-86.79289 c 0.2047,-81.19357 0.3337,-86.99062 2,-89.8578 1.5238,-2.6221 13.8809,-9.11743 85.5288,-44.95711 54.6033,-27.31362 84.7933,-41.8922 86.7524,-41.8922 3.7301,0 167.4812,81.68415 170.6834,85.14216 1.2008,1.29681 2.6145,3.49607 3.1414,4.88724 0.5794,1.52992 1.0105,36.19458 1.0911,87.72624 l 0.1331,85.19683 -86.0131,43.02376 c -62.7773,31.40125 -86.8941,43.00569 -89.2745,42.95683 -2.2064,-0.0453 -30.9186,-13.8739 -88.7614,-42.75 z m 75.1493,2.44584 c 0.1929,-2.40411 0.1257,-31.76661 -0.1493,-65.25 l -0.5,-60.8789 -65.7082,-32.95847 c -36.1395,-18.12716 -66.0645,-32.60256 -66.5,-32.16755 -1.0411,1.03987 -1.6613,91.48507 -0.7707,112.3873 l 0.6928,16.26128 8.143,4.39044 c 4.4787,2.41475 32.4431,16.65839 62.1431,31.65254 29.7,14.99414 55.575,28.07044 57.5,29.05843 1.925,0.98798 3.7922,1.81427 4.1493,1.83618 0.3571,0.0219 0.8071,-1.92715 1,-4.33125 z m 64.6061,-13.46801 c 19.6595,-9.81152 49.3073,-24.24641 65.884,-32.07754 l 30.1395,-14.23842 0.4941,-10.67246 c 0.651,-14.05996 0.8344,-122.17247 0.2073,-122.17247 -0.4334,0 -132.6475,65.92572 -133.2088,66.4217 -0.2267,0.20033 -0.5045,93.37287 -0.3514,117.8283 0.044,7.0125 0.3073,12.75 0.5853,12.75 0.278,0 16.5905,-8.0276 36.25,-17.83911 z m 14.7425,-168.40728 c 35.4762,-17.73551 64.5021,-32.47578 64.5021,-32.75615 0,-0.28037 -29.25,-15.12923 -65,-32.99746 l -65,-32.48769 -65,32.48769 c -35.75,17.86823 -65,32.71709 -65,32.99747 0,0.70492 128.201,64.87708 129.7479,64.94652 0.6864,0.0308 30.2739,-14.45486 65.75,-32.19038 z"
           id="path4187"
           inkscape:connector-curvature="0" />
      </g>
      <g
         id="g4192"
         transform="translate(-741.27452,-210.53804)">
        <path
           style="fill:#ffff00"
           d="m 743.72832,641.1122 -85.56087,-42.75 0.23771,-87 0.23771,-87 2.34695,-3.29053 c 1.97033,-2.76249 15.65201,-9.94368 85.2581,-44.75 71.02932,-35.518 83.51904,-41.45264 87.15305,-41.41179 3.54732,0.0399 17.82517,6.87609 87.1974,41.75 62.50688,31.42265 83.45953,42.39819 85.00003,44.52531 2.0169,2.78495 2.0481,3.99397 2.3107,89.73038 l 0.2662,86.90739 -86.00479,43.01962 c -63.32593,31.67567 -86.91139,43.01962 -89.44303,43.01962 -2.52982,0 -26.04534,-11.29548 -88.99916,-42.75 z"
           id="path4167"
           inkscape:connector-curvature="0" />
        <path
           inkscape:connector-curvature="0"
           id="path4169"
           d="m 677.14286,436.64792 150,74.28571 1.42857,152.85715 L 670,586.64792 Z"
           style="fill:#dcc800;fill-opacity:1;fill-rule:evenodd;stroke:#000000;stroke-width:1px;stroke-linecap:butt;stroke-linejoin:miter;stroke-opacity:1" />
        <path
           style="fill:#3d3d3a"
           d="m 743.42859,640.33098 -85.5,-42.68306 0.2188,-86.79289 c 0.20468,-81.19357 0.33371,-86.99062 2,-89.8578 1.52385,-2.6221 13.88093,-9.11743 85.52885,-44.95711 54.60328,-27.31362 84.7933,-41.8922 86.75238,-41.8922 3.73006,0 167.48119,81.68415 170.68338,85.14216 1.2008,1.29681 2.6145,3.49607 3.1414,4.88724 0.5794,1.52992 1.0105,36.19458 1.0911,87.72624 l 0.1331,85.19683 -86.01308,43.02376 c -62.77731,31.40125 -86.89409,43.00569 -89.27448,42.95683 -2.20645,-0.0453 -30.91866,-13.8739 -88.76145,-42.75 z m 75.14931,2.44584 c 0.19288,-2.40411 0.12569,-31.76661 -0.14931,-65.25 l -0.5,-60.8789 -65.7082,-32.95847 c -36.1395,-18.12716 -66.0645,-32.60256 -66.5,-32.16755 -1.04104,1.03987 -1.66129,91.48507 -0.77073,112.3873 l 0.69283,16.26128 8.14305,4.39044 c 4.47868,2.41475 32.44305,16.65839 62.14305,31.65254 29.7,14.99414 55.575,28.07044 57.5,29.05843 1.925,0.98798 3.79219,1.81427 4.14931,1.83618 0.35711,0.0219 0.80711,-1.92715 1,-4.33125 z m 64.6061,-13.46801 c 19.65952,-9.81152 49.30734,-24.24641 65.88404,-32.07754 l 30.13945,-14.23842 0.49413,-10.67246 c 0.65096,-14.05996 0.83441,-122.17247 0.2073,-122.17247 -0.43344,0 -132.64755,65.92572 -133.20879,66.4217 -0.2267,0.20033 -0.50456,93.37287 -0.35139,117.8283 0.0439,7.0125 0.30728,12.75 0.58526,12.75 0.27797,0 16.59047,-8.0276 36.25,-17.83911 z m 14.74254,-168.40728 c 35.47613,-17.73551 64.50205,-32.47578 64.50205,-32.75615 0,-0.28037 -29.25,-15.12923 -65,-32.99746 l -65,-32.48769 -65,32.48769 c -35.75,17.86823 -65,32.71709 -65,32.99747 0,0.70492 128.20098,64.87708 129.74795,64.94652 0.68638,0.0308 30.27388,-14.45486 65.75,-32.19038 z"
           id="path4171"
           inkscape:connector-curvature="0" />
      </g>
      <path
         sodipodi:nodetypes="ccccc"
         inkscape:connector-curvature="0"
         id="path4205"
         d="M 16.195846,316.86446 -232.30025,456.26485 c -5.85871,11.52483 -1.05711,24.25328 15.65625,27.90821 L 31.852086,344.77267 c 9.39018,-10.13875 6.50302,-30.44543 -15.65624,-27.90821 z"
         style="color:#000000;font-style:normal;font-variant:normal;font-weight:normal;font-stretch:normal;font-size:medium;line-height:normal;font-family:sans-serif;text-indent:0;text-align:start;text-decoration:none;text-decoration-line:none;text-decoration-style:solid;text-decoration-color:#000000;letter-spacing:normal;word-spacing:normal;text-transform:none;direction:ltr;block-progression:tb;writing-mode:lr-tb;baseline-shift:baseline;text-anchor:start;white-space:normal;clip-rule:nonzero;display:inline;overflow:visible;visibility:visible;opacity:1;isolation:auto;mix-blend-mode:normal;color-interpolation:sRGB;color-interpolation-filters:linearRGB;solid-color:#000000;solid-opacity:1;fill:#333333;fill-opacity:1;fill-rule:evenodd;stroke:none;stroke-width:32;stroke-linecap:butt;stroke-linejoin:miter;stroke-miterlimit:4;stroke-dasharray:none;stroke-dashoffset:0;stroke-opacity:1;color-rendering:auto;image-rendering:auto;shape-rendering:auto;text-rendering:auto;enable-background:accumulate" />
      <path
         style="color:#000000;font-style:normal;font-variant:normal;font-weight:normal;font-stretch:normal;font-size:medium;line-height:normal;font-family:sans-serif;text-indent:0;text-align:start;text-decoration:none;text-decoration-line:none;text-decoration-style:solid;text-decoration-color:#000000;letter-spacing:normal;word-spacing:normal;text-transform:none;direction:ltr;block-progression:tb;writing-mode:lr-tb;baseline-shift:baseline;text-anchor:start;white-space:normal;clip-rule:nonzero;display:inline;overflow:visible;visibility:visible;opacity:1;isolation:auto;mix-blend-mode:normal;color-interpolation:sRGB;color-interpolation-filters:linearRGB;solid-color:#000000;solid-opacity:1;fill:#333333;fill-opacity:1;fill-rule:evenodd;stroke:none;stroke-width:32;stroke-linecap:butt;stroke-linejoin:miter;stroke-miterlimit:4;stroke-dasharray:none;stroke-dashoffset:0;stroke-opacity:1;color-rendering:auto;image-rendering:auto;shape-rendering:auto;text-rendering:auto;enable-background:accumulate"
         d="m 186.01453,316.86446 248.49605,139.40039 c 5.8588,11.52483 1.0572,24.25328 -15.6562,27.90821 L 170.35829,344.77267 c -9.39019,-10.13875 -6.50302,-30.44543 15.65624,-27.90821 z"
         id="path4209"
         inkscape:connector-curvature="0"
         sodipodi:nodetypes="ccccc" />
      <path
         style="color:#000000;font-style:normal;font-variant:normal;font-weight:normal;font-stretch:normal;font-size:medium;line-height:normal;font-family:sans-serif;text-indent:0;text-align:start;text-decoration:none;text-decoration-line:none;text-decoration-style:solid;text-decoration-color:#000000;letter-spacing:normal;word-spacing:normal;text-transform:none;direction:ltr;block-progression:tb;writing-mode:lr-tb;baseline-shift:baseline;text-anchor:start;white-space:normal;clip-rule:nonzero;display:inline;overflow:visible;visibility:visible;opacity:1;isolation:auto;mix-blend-mode:normal;color-interpolation:sRGB;color-interpolation-filters:linearRGB;solid-color:#000000;solid-opacity:1;fill:#333333;fill-opacity:1;fill-rule:evenodd;stroke:none;stroke-width:32;stroke-linecap:butt;stroke-linejoin:miter;stroke-miterlimit:4;stroke-dasharray:none;stroke-dashoffset:0;stroke-opacity:1;color-rendering:auto;image-rendering:auto;shape-rendering:auto;text-rendering:auto;enable-background:accumulate"
         d="m 796.19587,316.86446 -248.4961,139.40039 c -5.8587,11.52483 -1.0571,24.25328 15.6562,27.90821 l 248.4961,-139.40039 c 9.3902,-10.13875 6.503,-30.44543 -15.6562,-27.90821 z"
         id="path4216"
         inkscape:connector-curvature="0"
         sodipodi:nodetypes="ccccc" />
      <g
         id="g4298"
         transform="translate(-741.27452,-210.53804)">
        <path
           inkscape:connector-curvature="0"
           id="path4175"
           d="m 1144.6981,827.54858 -82.9592,-40.15118 0.2305,-81.71117 0.2305,-81.71118 2.2755,-3.0905 c 1.9104,-2.59456 15.1761,-9.33919 82.6657,-42.0296 68.8696,-33.35882 80.9796,-38.93269 84.5031,-38.89432 3.4395,0.0374 17.2831,6.45809 84.546,39.21198 60.6063,29.51242 80.9218,39.82075 82.4155,41.81857 1.9555,2.61565 1.9858,3.75117 2.2404,84.27556 l 0.2581,81.6242 -83.3896,40.40441 c -61.4005,29.75007 -84.2688,40.40441 -86.7235,40.40441 -2.4528,0 -25.2534,-10.60882 -86.293,-40.15118 z"
           style="fill:#c8b7b7" />
        <path
           style="fill:#ac9393;fill-opacity:1;fill-rule:evenodd;stroke:#000000;stroke-width:1px;stroke-linecap:butt;stroke-linejoin:miter;stroke-opacity:1"
           d="m 1077.1429,636.64792 150,74.28571 1.4285,152.85715 L 1070,786.64792 Z"
           id="path4177"
           inkscape:connector-curvature="0" />
      </g>
      <path
         style="fill:#3d3d3a"
         d="m 402.15408,629.79294 -85.5,-42.68306 0.2188,-86.79289 c 0.2047,-81.19357 0.3337,-86.99062 2,-89.8578 1.5238,-2.6221 13.8809,-9.11743 85.5288,-44.95711 54.6033,-27.31362 84.7933,-41.8922 86.7524,-41.8922 3.7301,0 167.48119,81.68415 170.68339,85.14216 1.2008,1.29681 2.6145,3.49607 3.1414,4.88724 0.5794,1.52992 1.0105,36.19458 1.0911,87.72624 l 0.1331,85.19683 -86.0131,43.02376 c -62.7773,31.40125 -86.89409,43.00569 -89.27449,42.95683 -2.2064,-0.0453 -30.9186,-13.8739 -88.7614,-42.75 z m 75.1493,2.44584 c 0.1929,-2.40411 0.1257,-31.76661 -0.1493,-65.25 l -0.5,-60.8789 -65.7082,-32.95847 c -36.1395,-18.12716 -66.0645,-32.60256 -66.5,-32.16755 -1.0411,1.03987 -1.6613,91.48507 -0.7707,112.3873 l 0.6928,16.26128 8.143,4.39044 c 4.4787,2.41475 32.4431,16.65839 62.1431,31.65254 29.7,14.99414 55.575,28.07044 57.5,29.05843 1.925,0.98798 3.7922,1.81427 4.1493,1.83618 0.3571,0.0219 0.8071,-1.92715 1,-4.33125 z m 64.60609,-13.46801 c 19.6595,-9.81152 49.3073,-24.24641 65.884,-32.07754 l 30.1395,-14.23842 0.4941,-10.67246 c 0.651,-14.05996 0.8344,-122.17247 0.2073,-122.17247 -0.4334,0 -132.64749,65.92572 -133.20879,66.4217 -0.2267,0.20033 -0.5045,93.37287 -0.3514,117.8283 0.044,7.0125 0.3073,12.75 0.5853,12.75 0.278,0 16.59049,-8.0276 36.24999,-17.83911 z m 14.7425,-168.40728 c 35.4762,-17.73551 64.5021,-32.47578 64.5021,-32.75615 0,-0.28037 -29.25,-15.12923 -65,-32.99746 l -64.99999,-32.48769 -65,32.48769 c -35.75,17.86823 -65,32.71709 -65,32.99747 0,0.70492 128.201,64.87708 129.7479,64.94652 0.6864,0.0308 30.27389,-14.45486 65.74999,-32.19038 z"
         id="path4179"
         inkscape:connector-curvature="0" />
      <path
         style="fill:#aad400"
         d="m -393.90983,625.46302 -81.11602,-39.77992 0.22536,-80.95563 0.22536,-80.95563 2.22503,-3.06191 c 1.86797,-2.57057 14.83889,-9.25284 80.82898,-41.64098 67.33938,-33.05037 79.18026,-38.5727 82.62549,-38.53468 3.36304,0.0371 16.89916,6.39837 82.66754,38.8494 59.25967,29.23954 79.1238,39.45255 80.58429,41.43189 1.91216,2.59146 1.94169,3.71648 2.19066,83.49631 l 0.25235,80.86945 -81.53683,40.03081 c -60.03618,29.47499 -82.39639,40.03081 -84.79651,40.03081 -2.3984,0 -24.6923,-10.51072 -84.3757,-39.77992 z"
         id="path3353"
         inkscape:connector-curvature="0" />
      <path
         inkscape:connector-curvature="0"
         id="path3358"
         d="m -464.13166,426.10988 150,74.28571 1.42857,152.85715 -158.57143,-77.14286 z"
         style="fill:#668000;fill-opacity:1;fill-rule:evenodd;stroke:#000000;stroke-width:1px;stroke-linecap:butt;stroke-linejoin:miter;stroke-opacity:1" />
      <path
         style="fill:#3d3d3a"
         d="m -397.84593,629.79294 -85.5,-42.68306 0.2188,-86.79289 c 0.20468,-81.19357 0.33371,-86.99062 2,-89.8578 1.52385,-2.6221 13.88093,-9.11743 85.52885,-44.95711 54.60328,-27.31362 84.7933,-41.8922 86.75238,-41.8922 3.73006,0 167.48119,81.68415 170.68336,85.14216 1.20086,1.29681 2.61448,3.49607 3.14138,4.88724 0.57944,1.52992 1.01058,36.19458 1.09109,87.72624 l 0.13311,85.19683 -86.01304,43.02376 c -62.77731,31.40125 -86.89409,43.00569 -89.27448,42.95683 -2.20645,-0.0453 -30.91866,-13.8739 -88.76145,-42.75 z m 75.14931,2.44584 c 0.19288,-2.40411 0.12569,-31.76661 -0.14931,-65.25 l -0.5,-60.8789 -65.7082,-32.95847 c -36.1395,-18.12716 -66.0645,-32.60256 -66.5,-32.16755 -1.04104,1.03987 -1.66129,91.48507 -0.77073,112.3873 l 0.69283,16.26128 8.14305,4.39044 c 4.47868,2.41475 32.44305,16.65839 62.14305,31.65254 29.7,14.99414 55.575,28.07044 57.5,29.05843 1.925,0.98798 3.79219,1.81427 4.14931,1.83618 0.35711,0.0219 0.80711,-1.92715 1,-4.33125 z m 64.6061,-13.46801 c 19.65952,-9.81152 49.30734,-24.24641 65.88404,-32.07754 l 30.13945,-14.23842 0.49413,-10.67246 c 0.65096,-14.05996 0.83441,-122.17247 0.2073,-122.17247 -0.43344,0 -132.64755,65.92572 -133.20879,66.4217 -0.2267,0.20033 -0.50456,93.37287 -0.35139,117.8283 0.0439,7.0125 0.30728,12.75 0.58526,12.75 0.27797,0 16.59047,-8.0276 36.25,-17.83911 z m 14.74254,-168.40728 c 35.47613,-17.73551 64.50205,-32.47578 64.50205,-32.75615 0,-0.28037 -29.25,-15.12923 -65,-32.99746 l -65,-32.48769 -65,32.48769 c -35.75,17.86823 -65,32.71709 -65,32.99747 0,0.70492 128.20098,64.87708 129.74795,64.94652 0.68638,0.0308 30.27388,-14.45486 65.75,-32.19038 z"
         id="path3349"
         inkscape:connector-curvature="0" />
    </g>
  </g>
</svg>
